
<svg version="1.1" xmlns="http://www.w3.org/2000/svg" xmlns:xlink="http://www.w3.org/1999/xlink" x="0px" y="0px" width="652.3px" viewBox="0 0 652.3 418.24"  xml:space="preserve">
<style type="text/css">
	.st0{fill:#FFCD00;}
</style>
<defs>
</defs>
<g>
	<path class="st0" d="M429.04,131.3c36.68,0,66.52,29.84,66.52,66.52c0,36.68-29.84,66.52-66.52,66.52H223.26
		c-36.68,0-66.52-29.84-66.52-66.52c0-36.68,29.84-66.52,66.52-66.52H429.04 M429.04,110.13H223.26
		c-48.43,0-87.69,39.26-87.69,87.69v0c0,48.43,39.26,87.69,87.69,87.69h205.77c48.43,0,87.69-39.26,87.69-87.69v0
		C516.72,149.39,477.47,110.13,429.04,110.13"/>
	<g>
		<path d="M293.57,194.76c0,13.24-10.73,23.97-23.97,23.97c-13.24,0-23.97-10.73-23.97-23.97c0-13.24,10.73-23.97,23.97-23.97
			C282.84,170.78,293.57,181.52,293.57,194.76"/>
		<path d="M406.67,194.76c0,13.24-10.73,23.97-23.97,23.97c-13.24,0-23.97-10.73-23.97-23.97c0-13.24,10.73-23.97,23.97-23.97
			C395.94,170.78,406.67,181.52,406.67,194.76"/>
	</g>
	<g>
		<path d="M522.46,181.79c1.02,5.07,1.57,10.32,1.57,15.69c0,5.53-0.58,10.92-1.66,16.12c8.77-0.02,15.88-7.13,15.88-15.91
			C538.25,188.95,531.19,181.86,522.46,181.79"/>
		<path d="M129.84,181.79c-1.02,5.07-1.57,10.32-1.57,15.69c0,5.53,0.58,10.92,1.66,16.12c-8.77-0.02-15.88-7.13-15.88-15.91
			C114.05,188.95,121.11,181.86,129.84,181.79"/>
	</g>
	<path d="M416.8,30.66l-9.83-24.8c-0.02-0.04-0.04-0.09-0.06-0.13c-0.03-0.08-0.07-0.17-0.1-0.25c-0.03-0.06-0.06-0.13-0.1-0.19
		c-0.01-0.02-0.02-0.04-0.03-0.06c-0.06-0.12-0.12-0.24-0.18-0.36c-0.03-0.06-0.06-0.13-0.1-0.19c-0.05-0.08-0.1-0.16-0.15-0.24
		c-0.08-0.13-0.16-0.26-0.25-0.39c-0.03-0.04-0.05-0.08-0.07-0.11c-0.06-0.08-0.12-0.16-0.18-0.24c-0.1-0.13-0.19-0.26-0.3-0.38
		c-0.09-0.11-0.19-0.22-0.29-0.32c-0.11-0.12-0.21-0.23-0.32-0.34c-0.11-0.1-0.22-0.2-0.33-0.3c-0.11-0.1-0.23-0.2-0.35-0.3
		c-0.12-0.09-0.24-0.18-0.36-0.27c-0.13-0.09-0.25-0.18-0.38-0.27c-0.12-0.08-0.25-0.15-0.37-0.23c-0.14-0.08-0.28-0.16-0.42-0.23
		c-0.02-0.01-0.04-0.02-0.06-0.03c-0.05-0.02-0.09-0.05-0.14-0.08c-0.07-0.03-0.14-0.06-0.21-0.09c-0.13-0.06-0.26-0.12-0.39-0.17
		c-0.03-0.01-0.07-0.03-0.1-0.04c-0.13-0.05-0.26-0.1-0.38-0.14c-0.11-0.04-0.22-0.07-0.34-0.11c-0.05-0.01-0.09-0.03-0.14-0.04
		c-0.14-0.04-0.27-0.07-0.41-0.11c-0.1-0.02-0.2-0.05-0.31-0.07c-0.06-0.01-0.12-0.02-0.17-0.03c-0.14-0.02-0.27-0.05-0.41-0.07
		c-0.1-0.01-0.2-0.02-0.3-0.03c-0.07-0.01-0.14-0.01-0.2-0.02c-0.13-0.01-0.26-0.02-0.39-0.02C398.59,0,398.49,0,398.38,0
		c-0.07,0-0.14,0-0.22,0c-0.12,0-0.24,0.01-0.36,0.01c-0.11,0.01-0.23,0.02-0.34,0.03c-0.07,0.01-0.15,0.01-0.22,0.02
		c-0.11,0.01-0.22,0.03-0.33,0.05c-0.12,0.02-0.24,0.04-0.36,0.07c-0.05,0.01-0.1,0.01-0.15,0.02l-26.08,5.61
		c-5.01,1.08-8.2,6.01-7.12,11.02c0.94,4.36,4.79,7.33,9.06,7.33c0.65,0,1.3-0.07,1.96-0.21l7.32-1.57l-18.96,38.44l-24.69-34.14
		c-1.76-2.44-4.54-3.78-7.62-3.84c-3.02,0.04-5.83,1.53-7.54,4.01l-26.25,38.04l-21.23-18.63c-3.71-3.25-9.3-3.04-12.75,0.48
		L237.5,72.25c-3.59,3.66-3.53,9.54,0.13,13.13c3.66,3.59,9.54,3.53,13.13-0.13l18.86-19.24l22.46,19.72
		c1.99,1.75,4.62,2.56,7.27,2.24c2.63-0.33,4.99-1.76,6.5-3.94l24.71-35.81l26.03,35.98c1.75,2.42,4.56,3.84,7.52,3.84
		c0.26,0,0.52-0.01,0.78-0.03c3.24-0.27,6.11-2.23,7.55-5.15l25.01-50.71l2.12,5.36c1.44,3.64,4.94,5.86,8.63,5.86
		c1.13,0,2.29-0.21,3.42-0.65C416.36,40.82,418.69,35.43,416.8,30.66z"/>
	<path d="M14.12,389.3c0,0.95-0.19,1.87-0.55,2.73c-0.37,0.87-0.88,1.61-1.53,2.21c-0.65,0.61-1.4,1.09-2.24,1.46
		c-0.85,0.37-1.77,0.55-2.77,0.55c-0.95,0-1.86-0.19-2.73-0.55c-0.87-0.37-1.62-0.86-2.24-1.46c-0.63-0.61-1.13-1.34-1.5-2.21
		C0.19,391.16,0,390.25,0,389.3v-69.33c0-1,0.19-1.92,0.56-2.76c0.37-0.85,0.87-1.58,1.5-2.21c0.63-0.63,1.38-1.12,2.24-1.46
		c0.87-0.34,1.78-0.52,2.73-0.52c1,0,1.92,0.18,2.77,0.52c0.84,0.35,1.59,0.84,2.24,1.46c0.65,0.63,1.16,1.37,1.53,2.21
		c0.37,0.84,0.55,1.77,0.55,2.76V389.3z"/>
	<path d="M38.96,389.36c0,1.95-0.66,3.59-1.98,4.91c-1.32,1.32-2.96,1.98-4.91,1.98c-0.95,0-1.86-0.18-2.73-0.55
		c-0.87-0.37-1.64-0.86-2.31-1.46c-0.67-0.61-1.2-1.33-1.59-2.18c-0.39-0.84-0.58-1.74-0.58-2.7v-30.63c0-3.25,0.64-6.32,1.92-9.2
		c1.28-2.88,3.02-5.4,5.23-7.54c2.21-2.15,4.78-3.85,7.71-5.1c2.93-1.26,6.02-1.89,9.27-1.89c3.38,0,6.55,0.65,9.53,1.95
		c2.97,1.3,5.58,3.08,7.84,5.33c2.26-2.25,4.89-4.03,7.9-5.33c3.01-1.3,6.21-1.95,9.59-1.95c3.29,0,6.37,0.61,9.23,1.82
		c2.86,1.21,5.37,2.88,7.54,5.01c2.17,2.13,3.9,4.6,5.2,7.41c1.3,2.82,2.02,5.83,2.15,9.04c0,0.09,0.01,0.19,0.03,0.29
		c0.02,0.11,0.03,0.21,0.03,0.29v30.5c0,0.96-0.19,1.86-0.55,2.7c-0.37,0.85-0.87,1.57-1.5,2.18c-0.63,0.61-1.36,1.09-2.18,1.46
		c-0.82,0.37-1.71,0.55-2.67,0.55s-1.88-0.18-2.76-0.55c-0.89-0.37-1.66-0.86-2.31-1.46c-0.65-0.61-1.17-1.33-1.56-2.18
		c-0.39-0.84-0.59-1.74-0.59-2.7v-30.7c-0.04-1.39-0.35-2.67-0.91-3.84c-0.56-1.17-1.31-2.18-2.24-3.02
		c-0.93-0.85-1.99-1.51-3.19-1.99c-1.19-0.48-2.48-0.71-3.87-0.71c-1.39,0-2.71,0.26-3.97,0.78c-1.26,0.52-2.35,1.23-3.28,2.12
		c-0.93,0.89-1.67,1.93-2.21,3.12c-0.54,1.19-0.81,2.48-0.81,3.87v30.37c0,1.95-0.66,3.59-1.98,4.91c-1.32,1.32-2.96,1.98-4.91,1.98
		c-0.95,0-1.86-0.18-2.73-0.55c-0.87-0.37-1.64-0.86-2.31-1.46c-0.67-0.61-1.2-1.33-1.59-2.18c-0.39-0.84-0.59-1.74-0.59-2.7v-30.63
		c-0.04-1.39-0.33-2.68-0.88-3.87c-0.54-1.19-1.27-2.21-2.18-3.06c-0.91-0.85-1.97-1.51-3.19-1.99c-1.21-0.48-2.52-0.71-3.9-0.71
		c-1.39,0-2.7,0.25-3.94,0.75c-1.23,0.5-2.32,1.19-3.25,2.08c-0.93,0.89-1.67,1.92-2.21,3.09c-0.54,1.17-0.81,2.43-0.81,3.77V389.36
		z"/>
	<path d="M119.08,366.01c0-4.29,0.82-8.31,2.47-12.06c1.65-3.75,3.88-7.04,6.7-9.85c2.82-2.82,6.1-5.04,9.85-6.67
		c3.75-1.63,7.75-2.44,12-2.44c4.29,0,8.33,0.81,12.1,2.44c3.77,1.63,7.06,3.85,9.85,6.67c2.8,2.82,5,6.1,6.6,9.85
		c1.6,3.75,2.41,7.77,2.41,12.06c0,4.25-0.8,8.26-2.41,12.03c-1.6,3.77-3.8,7.07-6.6,9.88c-2.8,2.82-6.08,5.04-9.85,6.67
		c-3.77,1.63-7.8,2.44-12.1,2.44c-3.12,0-6.1-0.45-8.94-1.33c-2.84-0.89-5.49-2.13-7.97-3.74v18.93c0,1.04-0.16,2-0.49,2.89
		c-0.33,0.89-0.79,1.66-1.4,2.31c-0.61,0.65-1.33,1.17-2.18,1.56c-0.84,0.39-1.79,0.59-2.83,0.59c-1,0-1.93-0.2-2.79-0.59
		c-0.87-0.39-1.63-0.91-2.28-1.56c-0.65-0.65-1.17-1.42-1.56-2.31c-0.39-0.89-0.58-1.86-0.58-2.89V366.01z M133.19,366.01
		c0,2.3,0.44,4.48,1.33,6.54c0.89,2.06,2.1,3.86,3.64,5.4c1.54,1.54,3.33,2.75,5.37,3.64c2.04,0.89,4.23,1.33,6.57,1.33
		c2.34,0,4.54-0.44,6.6-1.33c2.06-0.89,3.85-2.1,5.36-3.64c1.52-1.54,2.71-3.34,3.58-5.4c0.87-2.06,1.3-4.24,1.3-6.54
		c0-2.34-0.43-4.54-1.3-6.6c-0.87-2.06-2.06-3.85-3.58-5.37c-1.52-1.52-3.31-2.72-5.36-3.61c-2.06-0.89-4.26-1.33-6.6-1.33
		c-2.3,0-4.48,0.44-6.54,1.33c-2.06,0.89-3.86,2.09-5.4,3.61c-1.54,1.52-2.75,3.31-3.64,5.37
		C133.64,361.47,133.19,363.67,133.19,366.01"/>
	<path d="M203.76,389.3c0,0.95-0.18,1.87-0.52,2.73c-0.35,0.87-0.84,1.61-1.46,2.21c-0.63,0.61-1.36,1.09-2.18,1.46
		c-0.82,0.37-1.71,0.55-2.66,0.55c-1,0-1.94-0.19-2.83-0.55c-0.89-0.37-1.66-0.86-2.31-1.46c-0.65-0.61-1.17-1.34-1.56-2.21
		c-0.39-0.87-0.58-1.78-0.58-2.73v-21c0-4.47,0.85-8.67,2.57-12.62c1.71-3.95,4.04-7.39,6.99-10.34c2.95-2.95,6.4-5.28,10.34-6.99
		c3.94-1.71,8.13-2.57,12.55-2.57h0.13c2.34,0,4.15,0.66,5.43,1.98c1.28,1.32,1.92,3,1.92,5.04c0,1-0.19,1.93-0.58,2.79
		c-0.39,0.87-0.92,1.62-1.59,2.24c-0.67,0.63-1.45,1.13-2.34,1.5c-0.89,0.37-1.83,0.55-2.83,0.55h-0.13c-2.47,0-4.82,0.48-7.06,1.43
		c-2.23,0.95-4.17,2.26-5.82,3.9c-1.65,1.65-2.97,3.58-3.97,5.79c-1,2.21-1.5,4.57-1.5,7.09V389.3z"/>
	<path d="M231.85,366.01c0-4.29,0.82-8.31,2.47-12.06c1.65-3.75,3.88-7.04,6.7-9.85c2.82-2.82,6.1-5.04,9.85-6.67
		c3.75-1.63,7.75-2.44,12-2.44c4.29,0,8.33,0.81,12.1,2.44c3.77,1.63,7.06,3.85,9.85,6.67c2.8,2.82,5,6.1,6.6,9.85
		s2.41,7.77,2.41,12.06c0,4.25-0.8,8.26-2.41,12.03c-1.6,3.77-3.8,7.07-6.6,9.88c-2.8,2.82-6.08,5.04-9.85,6.67
		c-3.77,1.63-7.8,2.44-12.1,2.44c-4.25,0-8.25-0.81-12-2.44c-3.75-1.63-7.03-3.85-9.85-6.67c-2.82-2.82-5.05-6.11-6.7-9.88
		C232.68,374.27,231.85,370.27,231.85,366.01 M245.97,366.01c0,2.3,0.44,4.48,1.33,6.54c0.89,2.06,2.1,3.86,3.64,5.4
		c1.54,1.54,3.33,2.75,5.36,3.64c2.04,0.89,4.23,1.33,6.57,1.33c2.34,0,4.54-0.44,6.6-1.33c2.06-0.89,3.85-2.1,5.36-3.64
		c1.52-1.54,2.71-3.34,3.58-5.4c0.87-2.06,1.3-4.24,1.3-6.54c0-2.34-0.44-4.54-1.3-6.6c-0.87-2.06-2.06-3.85-3.58-5.37
		c-1.52-1.52-3.31-2.72-5.36-3.61c-2.06-0.89-4.26-1.33-6.6-1.33c-2.3,0-4.47,0.44-6.54,1.33c-2.06,0.89-3.86,2.09-5.4,3.61
		c-1.54,1.52-2.75,3.31-3.64,5.37C246.41,361.47,245.97,363.67,245.97,366.01"/>
	<path d="M324.92,373.69l15.28-33.62c0.61-1.34,1.49-2.4,2.63-3.15c1.15-0.76,2.4-1.14,3.74-1.14c1.04,0,2.02,0.22,2.92,0.65
		c0.91,0.39,1.68,0.93,2.31,1.63c0.63,0.69,1.11,1.46,1.43,2.31c0.32,0.85,0.49,1.75,0.49,2.7c0,0.95-0.22,1.89-0.65,2.8
		l-21.66,46.11c-0.69,1.43-1.64,2.48-2.83,3.16c-1.19,0.67-2.31,1.05-3.35,1.14c-1.65,0-3.05-0.4-4.19-1.2
		c-1.15-0.8-2.03-1.83-2.64-3.09l-21.72-46.17c-0.44-0.91-0.65-1.84-0.65-2.8c0-0.95,0.16-1.85,0.49-2.7
		c0.33-0.85,0.8-1.62,1.43-2.31c0.63-0.69,1.38-1.23,2.24-1.63c0.48-0.22,0.95-0.38,1.43-0.49c0.48-0.11,0.95-0.16,1.43-0.16
		c1.39,0,2.66,0.38,3.8,1.14c1.15,0.76,2.03,1.81,2.64,3.15L324.92,373.69z"/>
	<path d="M372.46,372.32c0.56,1.61,1.36,3.07,2.38,4.39c1.02,1.32,2.2,2.45,3.54,3.38c1.34,0.93,2.82,1.65,4.42,2.15
		c1.6,0.5,3.29,0.75,5.07,0.75c4.47,0,7.98-1.17,10.54-3.51c0.87-0.61,1.71-1.05,2.54-1.33c0.82-0.28,1.6-0.42,2.34-0.42
		c1.21,0,2.3,0.32,3.25,0.94c0.95,0.63,1.73,1.44,2.34,2.44c0.43,0.7,0.75,1.44,0.94,2.24c0.2,0.8,0.24,1.62,0.13,2.44
		c-0.11,0.82-0.37,1.64-0.78,2.44c-0.42,0.8-1.03,1.53-1.86,2.18c-0.95,0.87-2.04,1.7-3.25,2.51c-1.21,0.8-2.61,1.51-4.19,2.11
		c-1.58,0.61-3.36,1.1-5.33,1.46c-1.97,0.37-4.2,0.55-6.67,0.55c-4.29,0-8.32-0.81-12.1-2.44c-3.77-1.63-7.07-3.85-9.88-6.67
		c-2.82-2.82-5.05-6.1-6.7-9.85c-1.65-3.75-2.47-7.77-2.47-12.06s0.82-8.33,2.47-12.1c1.65-3.77,3.88-7.06,6.7-9.85
		c2.82-2.79,6.11-5.01,9.88-6.63c3.77-1.63,7.81-2.44,12.1-2.44c4.25,0,8.25,0.8,12,2.41c3.75,1.61,7.05,3.78,9.89,6.53
		c2.84,2.76,5.09,6,6.76,9.73c1.67,3.73,2.53,7.72,2.57,11.97c0,2-0.64,3.61-1.92,4.84c-1.28,1.24-2.96,1.85-5.04,1.85H372.46z
		 M404.59,360.62c-0.48-1.77-1.23-3.38-2.25-4.81c-1.02-1.43-2.24-2.64-3.67-3.64c-1.43-1-3.04-1.75-4.81-2.28
		c-1.78-0.52-3.66-0.78-5.66-0.78c-1.99,0-3.87,0.27-5.63,0.81c-1.76,0.55-3.34,1.32-4.75,2.34c-1.41,1.02-2.61,2.23-3.61,3.64
		c-1,1.41-1.73,2.98-2.21,4.71H404.59z"/>
	<path class="st0" d="M465.86,396.26c-0.95,0-1.87-0.18-2.73-0.55c-0.87-0.37-1.62-0.86-2.24-1.46c-0.63-0.61-1.13-1.34-1.5-2.21
		c-0.37-0.87-0.55-1.78-0.55-2.73v-69.33c0-1,0.19-1.92,0.55-2.76c0.37-0.85,0.87-1.58,1.5-2.21c0.63-0.63,1.38-1.12,2.24-1.46
		c0.87-0.35,1.78-0.52,2.73-0.52h29.85c3.21,0,6.21,0.61,9.01,1.82c2.79,1.21,5.23,2.86,7.31,4.94c2.08,2.08,3.72,4.52,4.91,7.32
		c1.19,2.8,1.79,5.8,1.79,9.01c0,2.99-0.53,5.85-1.59,8.58c-1.06,2.73-2.53,5.2-4.39,7.42c2.77,2.39,4.97,5.26,6.6,8.61
		c1.63,3.36,2.44,6.99,2.44,10.9c0,3.47-0.66,6.7-1.98,9.69c-1.32,2.99-3.12,5.59-5.4,7.81c-2.28,2.21-4.94,3.96-8,5.24
		c-3.06,1.28-6.34,1.92-9.85,1.92H465.86z M472.95,327.12v18.99h22.24c1.3-0.04,2.52-0.33,3.68-0.88c1.15-0.54,2.14-1.25,2.99-2.11
		c0.84-0.87,1.51-1.88,1.98-3.03c0.48-1.15,0.71-2.33,0.71-3.54c0-1.3-0.26-2.51-0.78-3.64c-0.52-1.13-1.23-2.12-2.11-2.99
		c-0.89-0.87-1.92-1.55-3.09-2.05c-1.17-0.5-2.41-0.75-3.71-0.75H472.95z M472.95,360.23v21.92h23.09c1.6,0,3.11-0.31,4.52-0.94
		c1.41-0.63,2.65-1.48,3.71-2.57c1.06-1.08,1.9-2.32,2.5-3.71c0.61-1.39,0.91-2.84,0.91-4.36c0-1.56-0.31-2.98-0.94-4.26
		c-0.63-1.28-1.48-2.36-2.54-3.25c-1.06-0.89-2.3-1.58-3.71-2.08c-1.41-0.5-2.9-0.75-4.46-0.75H472.95z"/>
	<path class="st0" d="M528.03,366.01c0-4.29,0.82-8.31,2.48-12.06c1.65-3.75,3.88-7.04,6.69-9.85c2.82-2.82,6.1-5.04,9.86-6.67
		c3.75-1.63,7.74-2.44,12-2.44c4.29,0,8.32,0.81,12.1,2.44c3.77,1.63,7.05,3.85,9.85,6.67c2.8,2.82,4.99,6.1,6.6,9.85
		c1.61,3.75,2.41,7.77,2.41,12.06c0,4.25-0.8,8.26-2.41,12.03c-1.61,3.77-3.81,7.07-6.6,9.88c-2.8,2.82-6.08,5.04-9.85,6.67
		c-3.78,1.63-7.8,2.44-12.1,2.44c-4.26,0-8.25-0.81-12-2.44c-3.76-1.63-7.04-3.85-9.86-6.67c-2.82-2.82-5.04-6.11-6.69-9.88
		C528.85,374.27,528.03,370.27,528.03,366.01 M542.14,366.01c0,2.3,0.45,4.48,1.34,6.54c0.88,2.06,2.1,3.86,3.64,5.4
		c1.54,1.54,3.33,2.75,5.36,3.64c2.04,0.89,4.23,1.33,6.57,1.33c2.34,0,4.53-0.44,6.6-1.33c2.06-0.89,3.84-2.1,5.36-3.64
		c1.52-1.54,2.71-3.34,3.58-5.4c0.87-2.06,1.3-4.24,1.3-6.54c0-2.34-0.43-4.54-1.3-6.6c-0.87-2.06-2.06-3.85-3.58-5.37
		c-1.52-1.52-3.31-2.72-5.36-3.61c-2.07-0.89-4.27-1.33-6.6-1.33c-2.3,0-4.48,0.44-6.53,1.33c-2.07,0.89-3.87,2.09-5.4,3.61
		c-1.54,1.52-2.76,3.31-3.64,5.37C542.59,361.47,542.14,363.67,542.14,366.01"/>
	<path class="st0" d="M612.91,335.77h22.63c1,0,1.93,0.19,2.8,0.55c0.87,0.37,1.63,0.88,2.28,1.53c0.65,0.65,1.16,1.41,1.53,2.28
		c0.37,0.87,0.55,1.8,0.55,2.8c0,0.95-0.19,1.85-0.55,2.7c-0.37,0.84-0.88,1.58-1.53,2.21c-0.65,0.63-1.41,1.13-2.28,1.5
		c-0.87,0.37-1.8,0.55-2.8,0.55h-22.63v16.46c0,2.3,0.44,4.46,1.33,6.47c0.89,2.02,2.09,3.77,3.61,5.27
		c1.52,1.5,3.31,2.68,5.37,3.54c2.06,0.87,4.26,1.3,6.6,1.3c2.08,0,4.01-0.29,5.79-0.88c1.78-0.59,3.43-1.55,4.95-2.89
		c0.73-0.69,1.56-1.27,2.47-1.72c0.91-0.46,1.86-0.68,2.86-0.68c1.6,0,3.06,0.58,4.35,1.75c0.78,0.69,1.33,1.52,1.66,2.47
		c0.33,0.95,0.46,1.94,0.39,2.96c-0.06,1.02-0.31,2.01-0.74,2.96c-0.43,0.95-1.04,1.8-1.82,2.53c-2.6,2.52-5.59,4.41-8.97,5.69
		c-3.38,1.28-7.02,1.92-10.93,1.92c-4.29,0-8.31-0.8-12.06-2.41c-3.75-1.6-7.04-3.79-9.85-6.57c-2.82-2.77-5.04-6.04-6.67-9.79
		c-1.62-3.75-2.44-7.77-2.44-12.07v-41.75c0-1,0.2-1.93,0.59-2.8c0.39-0.87,0.91-1.63,1.56-2.28c0.65-0.65,1.41-1.16,2.28-1.53
		c0.86-0.37,1.77-0.55,2.73-0.55s1.86,0.19,2.7,0.55c0.85,0.37,1.58,0.88,2.21,1.53c0.62,0.65,1.12,1.41,1.49,2.28
		c0.37,0.87,0.56,1.8,0.56,2.8V335.77z"/>
</g>
</svg>
